<svg xmlns="http://www.w3.org/2000/svg" width="164" height="32" viewBox="0 0 164 32" fill="none">
	<path d="M164 27.1742C164 29.5937 162.028 31.555 159.596 31.555C157.163 31.555 155.191 29.5937 155.191 27.1742C155.191 24.7547 157.163 22.7934 159.596 22.7934C162.028 22.7934 164 24.7547 164 27.1742Z" fill="#93F224"/>
	<path d="M142.555 0.000915527V20.6332L127.236 0.45065L126.906 0.000915527H126.893H120.865V32.0002H127.648V11.1936L142.954 31.5271L143.298 32.0002H149.338V29.5673V0.000915527H142.555Z" fill="#23281F"/>
	<path d="M44.6381 31.9993C42.3527 31.9993 40.424 31.6916 38.2763 31.0442L36.1068 26.8346L33.9374 22.6255C35.1769 23.5983 37.8515 24.7811 39.5576 25.3703C41.2655 25.9595 42.9721 26.254 44.68 26.254C46.5795 26.254 47.9827 25.9595 48.8925 25.3703C49.8012 24.7506 50.2553 23.9404 50.2553 22.9389C50.2553 22.2028 49.9796 21.5976 49.4296 21.1273C48.9057 20.6265 48.218 20.2292 47.3631 19.9328C46.5376 19.6396 45.4084 19.3143 43.9777 18.9616C41.7749 18.4013 39.9712 17.8409 38.5665 17.2822C37.1617 16.7217 35.9515 15.8236 34.9315 14.5855C33.9403 13.3486 33.4453 11.6982 33.4453 9.63555C33.4453 7.8384 33.8994 6.21713 34.8081 4.77411C35.7162 3.30106 37.0802 2.13666 38.8972 1.28164C40.7416 0.426926 42.985 -6.10352e-05 45.6289 -6.10352e-05C47.4734 -6.10352e-05 48.8315 0.111741 50.5934 0.583776L53.6004 8.17648C50.9299 6.55655 48.2586 5.74509 45.5887 5.74509C43.7149 5.74509 42.3249 6.07054 41.4164 6.71786C40.5357 7.36666 40.0943 8.22168 40.0943 9.28127C40.0943 10.3425 40.604 11.1377 41.6224 11.6689C42.6689 12.1697 44.2521 12.6704 46.3723 13.1711C48.575 13.7316 50.3786 14.2903 51.7835 14.8507C53.1882 15.411 54.3851 16.2949 55.3766 17.5026C56.3951 18.7102 56.9044 20.3461 56.9044 22.4088C56.9044 24.1769 56.4371 25.7969 55.4996 27.2702C54.5914 28.7144 53.2159 29.8623 51.3697 30.7175C49.5257 31.5725 47.2822 31.9992 44.6379 31.9992L44.6381 31.9993Z" fill="#23281F"/>
	<path d="M66.6783 6.03509H63.0942H59.1325L56.9033 0.000915527H83.2505L80.8647 6.03509H78.1741H73.4756V32.0002H66.6783V6.03509Z" fill="#23281F"/>
	<path fill-rule="evenodd" clip-rule="evenodd" d="M104.477 24.9135C103.085 25.7703 101.525 26.1969 99.7996 26.1969C98.0728 26.1969 96.5143 25.7703 95.1228 24.9135C93.7296 24.0268 92.6309 22.8048 91.8226 21.2458C91.0435 19.6868 90.6531 17.9142 90.6531 15.9273C90.6531 13.9415 91.0435 12.1678 91.8226 10.6087C92.6309 9.04972 93.7296 7.84369 95.1228 6.98689C96.5143 6.10035 98.0728 5.65761 99.7996 5.65761C101.525 5.65761 103.085 6.10035 104.477 6.98689C105.868 7.84369 106.955 9.04957 107.735 10.6087C108.543 12.1677 108.945 13.9415 108.945 15.9273C108.945 17.9142 108.543 19.6866 107.735 21.2458C106.955 22.8048 105.868 24.0268 104.477 24.9135ZM91.5731 29.7866C94.0228 31.1656 96.7652 31.8549 99.7996 31.8549C102.834 31.8549 105.564 31.1656 107.985 29.7866C110.407 28.4078 112.314 26.5162 113.707 24.1111C115.099 21.6766 115.794 18.9495 115.794 15.9273C115.794 12.9067 115.099 10.1936 113.707 7.78868C112.314 5.35446 110.407 3.447 107.985 2.0694C105.564 0.690607 102.834 0.000915527 99.7996 0.000915527C96.7652 0.000915527 94.0228 0.690607 91.5731 2.0694C89.1495 3.447 87.243 5.35446 85.8498 7.78868C84.4858 10.1936 83.8037 12.9069 83.8037 15.9273C83.8037 18.9495 84.4858 21.6766 85.8498 24.1111C87.243 26.5162 89.1495 28.4078 91.5731 29.7866Z" fill="#23281F"/>
	<path d="M6.02251 31.8611C7.72299 28.0304 11.5544 25.3552 16.0149 25.3552C20.5294 25.3552 24.4038 28.093 26.0728 31.9991H31.9903C31.9903 31.9991 31.561 29.1526 28.8358 25.8124C27.1014 23.6887 25.881 22.7918 23.777 21.6439C17.2718 18.0991 10.8781 20.5103 10.8781 20.5103L16.3095 6.4014L18.8187 14.7693C18.8187 14.7693 21.1489 14.7113 23.2082 15.3848C25.2673 16.0584 26.3455 17.231 26.3455 17.231L19.4456 0.00164795H16.3095H13.1722L0 31.9992H5.9427C5.9427 31.9992 5.97019 31.9497 6.02236 31.8613L6.02251 31.8611Z" fill="#23281F"/>
</svg>